<?xml version="1.0" standalone="no"?>
<!DOCTYPE svg PUBLIC "-//W3C//DTD SVG 20010904//EN"
 "http://www.w3.org/TR/2001/REC-SVG-20010904/DTD/svg10.dtd">
<svg version="1.0" xmlns="http://www.w3.org/2000/svg"
 width="1024.000000pt" height="329.000000pt" viewBox="0 0 1024.000000 329.000000"
 preserveAspectRatio="xMidYMid meet">

<g transform="translate(0.000000,329.000000) scale(0.100000,-0.100000)"
fill="#000000" stroke="none">
<path d="M7879 2104 c-65 -21 -84 -33 -142 -89 -37 -36 -69 -77 -73 -92 -4
-15 -15 -45 -25 -65 -14 -26 -19 -59 -19 -111 0 -106 35 -180 129 -270 94 -91
103 -89 106 31 l1 92 -47 30 c-54 35 -59 47 -59 153 l0 78 50 49 c66 65 101
82 180 87 72 5 94 -2 160 -50 112 -83 122 -234 23 -363 -28 -38 -90 -57 -155
-48 -51 7 -59 0 -82 -66 -21 -59 -20 -77 3 -90 33 -17 82 -11 175 22 133 47
201 123 232 257 20 84 12 177 -21 244 -14 27 -25 54 -25 61 0 12 -22 33 -105
99 -38 30 -148 67 -194 66 -20 -1 -70 -12 -112 -25z"/>
<path d="M2415 2100 c-38 -4 -78 -11 -88 -15 -29 -12 -64 -94 -72 -168 -7 -72
-8 -73 -80 -79 -29 -3 -30 -4 -30 -58 l0 -55 43 -6 c23 -3 47 -10 52 -15 5 -5
11 -84 12 -174 l3 -165 50 -6 c96 -12 95 -13 95 170 0 117 3 161 13 169 7 6
35 15 62 19 l50 8 5 53 c6 60 -6 75 -53 67 -14 -3 -37 -1 -51 5 -23 8 -26 15
-26 58 0 26 5 53 12 60 7 7 35 12 63 12 62 0 75 12 75 65 0 23 -5 46 -12 53
-13 13 -16 13 -123 2z"/>
<path d="M5834 2083 c-12 -2 -30 -13 -40 -24 -9 -10 -23 -19 -31 -19 -7 0 -19
-11 -25 -25 -6 -14 -15 -25 -19 -25 -19 0 -29 -86 -29 -240 0 -157 10 -240 30
-240 5 0 11 -9 15 -19 3 -11 19 -24 35 -29 15 -6 38 -20 50 -32 20 -20 28 -21
221 -18 170 3 202 5 212 19 7 9 21 19 32 23 11 4 33 27 48 51 26 41 28 53 32
172 6 166 -3 280 -24 301 -9 8 -20 24 -26 35 -5 11 -19 25 -30 31 -11 6 -25
18 -31 26 -10 12 -47 15 -206 16 -106 1 -203 0 -214 -3z m429 -93 l52 -55 0
-186 c0 -161 -2 -188 -17 -202 -9 -10 -19 -25 -22 -35 -13 -40 -71 -52 -257
-52 -195 0 -207 4 -256 75 -24 36 -26 45 -30 207 l-5 169 32 49 c31 49 59 73
95 83 11 3 96 5 188 4 l168 -2 52 -55z"/>
<path d="M6185 1939 c-8 -26 6 -42 28 -33 20 7 22 25 5 42 -17 17 -26 15 -33
-9z"/>
<path d="M5970 1902 c-32 -5 -90 -60 -90 -85 0 -10 -5 -27 -11 -38 -15 -29 13
-118 48 -151 28 -27 51 -31 151 -29 60 1 95 39 111 120 11 54 10 64 -9 105
-12 24 -31 51 -43 59 -23 15 -115 26 -157 19z m115 -46 c36 -13 40 -18 51 -67
16 -73 2 -118 -46 -141 -43 -21 -64 -22 -115 -4 -57 20 -78 85 -54 166 9 30
18 39 48 47 51 15 71 15 116 -1z"/>
<path d="M4205 2054 c-25 -9 -48 -27 -61 -47 -21 -32 -26 -46 -38 -99 -7 -32
-29 -35 -111 -15 -53 13 -86 32 -149 84 -49 41 -61 41 -75 2 -8 -23 -7 -39 5
-70 15 -37 15 -54 -1 -105 -4 -14 1 -30 18 -50 13 -16 28 -44 32 -62 8 -36 50
-92 70 -92 26 0 38 -27 23 -57 -12 -26 -25 -32 -100 -48 -71 -14 -1 -44 122
-52 105 -6 203 14 264 56 60 41 143 125 151 152 4 13 16 35 26 49 12 15 24 62
33 118 11 78 18 98 41 122 25 26 27 33 18 62 -9 31 -11 33 -54 31 -26 -2 -63
5 -91 17 -54 23 -69 24 -123 4z"/>
<path d="M7916 1897 c-33 -10 -44 -21 -68 -67 -33 -64 -35 -93 -9 -117 11 -10
22 -30 26 -45 13 -53 28 -17 21 51 -5 56 -3 71 14 99 15 24 27 32 49 32 16 0
34 -6 40 -14 16 -20 16 -83 0 -146 -13 -50 -12 -53 9 -70 18 -15 29 -17 54 -9
17 5 34 12 37 17 63 92 72 163 26 216 -14 16 -25 32 -25 37 0 12 -60 29 -99
28 -20 0 -54 -6 -75 -12z"/>
</g>
</svg>
